<svg xmlns="http://www.w3.org/2000/svg" xmlns:xlink="http://www.w3.org/1999/xlink"><symbol fill="none" id="icon-arrow-down" viewBox="0 0 24 24"><path d="M9 16V18H11V16H9Z" fill="currentColor"/><path d="M7 14V16H9L9 14H7Z" fill="currentColor"/><path d="M15 14V16H17V14H15Z" fill="currentColor"/><path d="M11 18V20H13L13 18H11Z" fill="currentColor"/><path d="M17 12V14H19V12H17Z" fill="currentColor"/><path d="M5 12L5 14H7L7 12H5Z" fill="currentColor"/><path d="M13 16L13 18H15V16H13Z" fill="currentColor"/><path d="M11 18H13L13 4H11L11 18Z" fill="currentColor"/></symbol><use xlink:href="#icon-arrow-down" width="24" height="24" y="0"/><view id="icon-arrow-down-view" viewBox="0 0 24 24"/><symbol fill="none" id="icon-arrow-external" viewBox="0 0 24 24"><path d="M12.7071 7.0503L14.1214 5.63608L15.5356 7.0503L14.1214 8.46451L12.7071 7.0503Z" fill="currentColor"/><path d="M9.87871 7.0503L11.2929 5.63608L12.7071 7.0503L11.2929 8.46451L9.87871 7.0503Z" fill="currentColor"/><path d="M15.5356 12.7072L16.9498 11.2929L18.364 12.7072L16.9498 14.1214L15.5356 12.7072Z" fill="currentColor"/><path d="M15.5356 7.0503L16.9498 5.63608L18.364 7.0503L16.9498 8.46451L15.5356 7.0503Z" fill="currentColor"/><path d="M15.5356 15.5356L16.9498 14.1214L18.364 15.5356L16.9498 16.9498L15.5356 15.5356Z" fill="currentColor"/><path d="M7.05029 7.0503L8.4645 5.63608L9.87871 7.0503L8.4645 8.46451L7.05029 7.0503Z" fill="currentColor"/><path d="M15.5356 9.87872L16.9498 8.46451L18.364 9.87872L16.9498 11.2929L15.5356 9.87872Z" fill="currentColor"/><path d="M15.5356 7.0503L16.9498 8.46451L7.05029 18.364L5.63607 16.9498L15.5356 7.0503Z" fill="currentColor"/></symbol><use xlink:href="#icon-arrow-external" width="24" height="24" y="24"/><view id="icon-arrow-external-view" viewBox="0 24 24 24"/><symbol fill="none" id="icon-arrow-left" viewBox="0 0 24 24"><path d="M8 9H6V11H8V9Z" fill="currentColor"/><path d="M10 7H8V9H10V7Z" fill="currentColor"/><path d="M10 15H8V17H10V15Z" fill="currentColor"/><path d="M6 11H4L4 13H6V11Z" fill="currentColor"/><path d="M12 17H10V19H12V17Z" fill="currentColor"/><path d="M12 5L10 5V7H12V5Z" fill="currentColor"/><path d="M8 13H6V15H8V13Z" fill="currentColor"/><path d="M6 11V13H20V11L6 11Z" fill="currentColor"/></symbol><use xlink:href="#icon-arrow-left" width="24" height="24" y="48"/><view id="icon-arrow-left-view" viewBox="0 48 24 24"/><symbol fill="none" id="icon-arrow-right" viewBox="0 0 24 24"><path d="M16 9H18V11H16V9Z" fill="currentColor"/><path d="M14 7H16V9H14V7Z" fill="currentColor"/><path d="M14 15H16V17H14V15Z" fill="currentColor"/><path d="M18 11H20V13H18V11Z" fill="currentColor"/><path d="M12 17H14V19H12V17Z" fill="currentColor"/><path d="M12 5L14 5V7H12V5Z" fill="currentColor"/><path d="M16 13H18V15H16V13Z" fill="currentColor"/><path d="M18 11V13H4L4 11L18 11Z" fill="currentColor"/></symbol><use xlink:href="#icon-arrow-right" width="24" height="24" y="72"/><view id="icon-arrow-right-view" viewBox="0 72 24 24"/><symbol fill="none" id="icon-arrow-up" viewBox="0 0 24 24"><path d="M15 8V6H13V8H15Z" fill="currentColor"/><path d="M17 10V8H15V10H17Z" fill="currentColor"/><path d="M9 10V8H7V10H9Z" fill="currentColor"/><path d="M13 6V4L11 4V6H13Z" fill="currentColor"/><path d="M7 12V10H5L5 12H7Z" fill="currentColor"/><path d="M19 12V10H17V12H19Z" fill="currentColor"/><path d="M11 8V6H9V8H11Z" fill="currentColor"/><path d="M13 6H11V20H13L13 6Z" fill="currentColor"/></symbol><use xlink:href="#icon-arrow-up" width="24" height="24" y="96"/><view id="icon-arrow-up-view" viewBox="0 96 24 24"/><symbol fill="none" id="icon-caret-down" viewBox="0 0 24 24"><path d="M15 12V14L13 14L13 12L15 12Z" fill="currentColor"/><path d="M17 10V12H15V10H17Z" fill="currentColor"/><path d="M9 10L9 12L7 12L7 10H9Z" fill="currentColor"/><path d="M13 14V16H11V14H13Z" fill="currentColor"/><path d="M7 8L7 10L5 10L5 8L7 8Z" fill="currentColor"/><path d="M19 8V10L17 10V8L19 8Z" fill="currentColor"/><path d="M11 12L11 14H9V12H11Z" fill="currentColor"/></symbol><use xlink:href="#icon-caret-down" width="24" height="24" y="120"/><view id="icon-caret-down-view" viewBox="0 120 24 24"/><symbol fill="none" id="icon-caret-left" viewBox="0 0 24 24"><path d="M12 15H10L10 13L12 13L12 15Z" fill="currentColor"/><path d="M14 17H12L12 15H14V17Z" fill="currentColor"/><path d="M14 9L12 9L12 7L14 7V9Z" fill="currentColor"/><path d="M10 13L8 13L8 11L10 11V13Z" fill="currentColor"/><path d="M16 7L14 7L14 5L16 5V7Z" fill="currentColor"/><path d="M16 19H14L14 17H16V19Z" fill="currentColor"/><path d="M12 11L10 11L10 9L12 9V11Z" fill="currentColor"/></symbol><use xlink:href="#icon-caret-left" width="24" height="24" y="144"/><view id="icon-caret-left-view" viewBox="0 144 24 24"/><symbol fill="none" id="icon-caret-right" viewBox="0 0 24 24"><path d="M12 9H14V11H12V9Z" fill="currentColor"/><path d="M10 7H12V9H10V7Z" fill="currentColor"/><path d="M10 15H12V17H10V15Z" fill="currentColor"/><path d="M14 11H16V13H14V11Z" fill="currentColor"/><path d="M8 17H10V19H8V17Z" fill="currentColor"/><path d="M8 5H10V7H8V5Z" fill="currentColor"/><path d="M12 13H14V15H12V13Z" fill="currentColor"/></symbol><use xlink:href="#icon-caret-right" width="24" height="24" y="168"/><view id="icon-caret-right-view" viewBox="0 168 24 24"/><symbol fill="none" id="icon-caret-up" viewBox="0 0 24 24"><path d="M9 12V10H11V12H9Z" fill="currentColor"/><path d="M7 14V12H9V14H7Z" fill="currentColor"/><path d="M15 14V12H17V14H15Z" fill="currentColor"/><path d="M11 10V8L13 8V10H11Z" fill="currentColor"/><path d="M17 16V14H19V16H17Z" fill="currentColor"/><path d="M5 16L5 14H7V16H5Z" fill="currentColor"/><path d="M13 12V10H15V12H13Z" fill="currentColor"/></symbol><use xlink:href="#icon-caret-up" width="24" height="24" y="192"/><view id="icon-caret-up-view" viewBox="0 192 24 24"/><symbol fill="none" id="icon-checkmark" viewBox="0 0 20 20"><path d="M7.95129 12.5371L15.2474 4.34151C15.6111 3.92587 16.2429 3.88375 16.6585 4.24744C17.0741 4.61112 17.1163 5.24288 16.7526 5.65852L8.75258 14.6585C8.37166 15.0939 7.70193 15.1162 7.29289 14.7071L3.29289 10.7071C2.90237 10.3166 2.90237 9.68343 3.29289 9.29291C3.68342 8.90238 4.31658 8.90238 4.70711 9.29291L7.95129 12.5371Z" fill="currentColor"/></symbol><use xlink:href="#icon-checkmark" width="20" height="20" y="216"/><view id="icon-checkmark-view" viewBox="0 216 20 20"/><symbol fill="none" id="icon-close" viewBox="0 0 25 24"><path d="M9.40234 9H11.4023V11H9.40234V9Z" fill="currentColor"/><path d="M7.40234 7H9.40234V9H7.40234V7Z" fill="currentColor"/><path d="M7.40234 15H9.40234V17H7.40234V15Z" fill="currentColor"/><path d="M11.4023 11H13.4023V13H11.4023V11Z" fill="currentColor"/><path d="M13.4023 9H15.4023V11H13.4023V9Z" fill="currentColor"/><path d="M15.4023 7H17.4023V9H15.4023V7Z" fill="currentColor"/><path d="M15.4023 7H17.4023V9H15.4023V7Z" fill="currentColor"/><path d="M17.4023 5H19.4023V7H17.4023V5Z" fill="currentColor"/><path d="M17.4023 17H19.4023V19H17.4023V17Z" fill="currentColor"/><path d="M5.40234 17H7.40234V19H5.40234V17Z" fill="currentColor"/><path d="M5.40234 5H7.40234V7H5.40234V5Z" fill="currentColor"/><path d="M9.40234 13H11.4023V15H9.40234V13Z" fill="currentColor"/><path d="M13.4023 13H15.4023V15H13.4023V13Z" fill="currentColor"/><path d="M15.4023 15H17.4023V17H15.4023V15Z" fill="currentColor"/></symbol><use xlink:href="#icon-close" width="25" height="24" y="236"/><view id="icon-close-view" viewBox="0 236 25 24"/><symbol fill="none" id="icon-darkmode" viewBox="0 0 25 24"><path d="M12.5444 4V4.88889H11.2111V6.22222H9.87773V7.55556H8.54439L8.54439 10.2222H7.12219L7.12219 13.7778H8.54439V16.4444H9.87773V17.7778H11.2111V19.1111H12.5444V20H16.9888V19.1111H17.8777V17.3333H16.0999V16.4444H14.3222V15.5556H13.4333V8.44444H14.3222V7.55555L16.0999 7.55556V6.66667H17.8777V4.88889L16.9888 4.88889V4H12.5444Z" fill="currentColor"/></symbol><use xlink:href="#icon-darkmode" width="25" height="24" y="260"/><view id="icon-darkmode-view" viewBox="0 260 25 24"/><symbol fill="none" id="icon-discover" viewBox="0 0 25 24"><path d="M18.0452 12.8571V14.5714H19.7595V12.8571H18.0452Z" fill="currentColor"/><path d="M7.7595 11.1429L7.7595 9.42857L6.04522 9.42857L6.04522 11.1429H7.7595Z" fill="currentColor"/><path d="M16.3309 14.5714V16.2857H18.0452V14.5714H16.3309Z" fill="currentColor"/><path d="M9.47379 9.42857V7.71429L7.7595 7.71429V9.42857H9.47379Z" fill="currentColor"/><path d="M7.7595 14.5714V16.2857H9.47379V14.5714H7.7595Z" fill="currentColor"/><path d="M18.0452 9.42857V7.71429L16.3309 7.71429V9.42857L18.0452 9.42857Z" fill="currentColor"/><path d="M6.04522 12.8571V14.5714H7.7595V12.8571H6.04522Z" fill="currentColor"/><path d="M19.7595 11.1429V9.42857H18.0452V11.1429H19.7595Z" fill="currentColor"/><path d="M21.4738 12.8571V11.1429H19.7595V12.8571H21.4738Z" fill="currentColor"/><path d="M6.04522 12.8571V11.1429H4.33093L4.33093 12.8571H6.04522Z" fill="currentColor"/><path d="M9.47379 16.2857V18H16.3309V16.2857H9.47379Z" fill="currentColor"/><path d="M9.47379 6V7.71429L16.3309 7.71429V6H9.47379Z" fill="currentColor"/><path d="M11.1881 10.2857V13.7143H14.6166V10.2857H11.1881Z" fill="currentColor"/></symbol><use xlink:href="#icon-discover" width="25" height="24" y="284"/><view id="icon-discover-view" viewBox="0 284 25 24"/><symbol fill="none" id="icon-email" viewBox="0 0 25 24"><path d="M14.7668 11.1429V12.8571H13.0525V11.1429H14.7668Z" fill="currentColor"/><path d="M16.4811 9.42857V11.1429H14.7668V9.42857H16.4811Z" fill="currentColor"/><path d="M9.62394 9.42857V11.1429H7.90965L7.90965 9.42857H9.62394Z" fill="currentColor"/><path d="M13.0525 12.8571V14.5714H11.3382V12.8571L13.0525 12.8571Z" fill="currentColor"/><path d="M7.90965 7.71429V9.42857L6.19536 9.42857L6.19536 7.71429L7.90965 7.71429Z" fill="currentColor"/><path d="M18.1954 6V7.71429L6.19536 7.71429V6L18.1954 6Z" fill="currentColor"/><path d="M18.1954 16.2857V18L6.19536 18L6.19536 16.2857H18.1954Z" fill="currentColor"/><path d="M18.1954 7.71429V9.42857L16.4811 9.42857V7.71429L18.1954 7.71429Z" fill="currentColor"/><path d="M19.9096 7.71429V16.2857L18.1954 16.2857V7.71429L19.9096 7.71429Z" fill="currentColor"/><path d="M6.19536 7.71429V16.2857L4.48108 16.2857L4.48108 7.71429H6.19536Z" fill="currentColor"/><path d="M11.3382 11.1429V12.8571L9.62394 12.8571V11.1429H11.3382Z" fill="currentColor"/></symbol><use xlink:href="#icon-email" width="25" height="24" y="308"/><view id="icon-email-view" viewBox="0 308 25 24"/><symbol fill="none" id="icon-fb" viewBox="0 0 24 24"><path d="M13.95 7.05H16V4H13.575C10.65 4.125 10.05 5.775 10 7.5V9.025H8V12H10V20H13V12H15.475L15.95 9.025H13V8.1C12.992 7.96835 13.0103 7.83643 13.054 7.71196C13.0976 7.5875 13.1657 7.47301 13.2542 7.37521C13.3427 7.2774 13.4498 7.19826 13.5693 7.14241C13.6888 7.08657 13.8182 7.05515 13.95 7.05Z" fill="currentColor"/></symbol><use xlink:href="#icon-fb" width="24" height="24" y="332"/><view id="icon-fb-view" viewBox="0 332 24 24"/><symbol fill="none" id="icon-filters" viewBox="0 0 24 24"><path d="M5.95508 7.84143H18.0449V9.34143H5.95508V7.84143Z" fill="currentColor"/><path d="M7.54102 6.34143H9.04102V7.84143H7.54102V6.34143Z" fill="currentColor"/><path d="M8.5918 9.34143H10.0918V10.8414H8.5918V9.34143Z" fill="currentColor"/><path d="M5.95508 14.4052H18.0449V15.9052H5.95508V14.4052Z" fill="currentColor"/><path d="M14.4219 15.9052H15.9219V17.4052H14.4219V15.9052Z" fill="currentColor"/><path d="M12.9219 12.9052H14.4219V14.4052H12.9219V12.9052Z" fill="currentColor"/></symbol><use xlink:href="#icon-filters" width="24" height="24" y="356"/><view id="icon-filters-view" viewBox="0 356 24 24"/><symbol fill="none" id="icon-instagram" viewBox="0 0 40 40"><path fill-rule="evenodd" clip-rule="evenodd" d="M33.3257 14.059C33.14 9.95133 29.7401 6.66675 25.5875 6.66675H14.4132L14.0592 6.67473C9.95157 6.86042 6.66699 10.2603 6.66699 14.413V25.5872L6.67498 25.9412C6.86066 30.0488 10.2606 33.3334 14.4132 33.3334H25.5874L25.9414 33.3254C30.0491 33.1398 33.3337 29.7398 33.3337 25.5872V14.413L33.3257 14.059ZM14.4132 9.16675H25.5875L25.8845 9.17508C28.6377 9.32984 30.8337 11.6221 30.8337 14.413V25.5872L30.8253 25.8843C30.6706 28.6374 28.3783 30.8334 25.5874 30.8334H14.4132L14.1162 30.8251C11.363 30.6703 9.16699 28.3781 9.16699 25.5872V14.413L9.17532 14.116C9.33009 11.3628 11.6223 9.16675 14.4132 9.16675ZM27.1878 20.0001C27.1878 16.0369 23.9636 12.8126 20.0003 12.8126C16.0371 12.8126 12.8128 16.0369 12.8128 20.0001C12.8128 23.9633 16.0371 27.1876 20.0003 27.1876C23.9636 27.1876 27.1878 23.9633 27.1878 20.0001ZM15.3128 20.0001C15.3128 17.4176 17.4178 15.3126 20.0003 15.3126C22.5828 15.3126 24.6878 17.4176 24.6878 20.0001C24.6878 22.5826 22.5828 24.6876 20.0003 24.6876C17.4178 24.6876 15.3128 22.5826 15.3128 20.0001ZM28.7503 12.9167C28.7503 13.6071 28.1907 14.1667 27.5003 14.1667C26.81 14.1667 26.2503 13.6071 26.2503 12.9167C26.2503 12.2264 26.81 11.6667 27.5003 11.6667C28.1907 11.6667 28.7503 12.2264 28.7503 12.9167Z" fill="currentColor"/></symbol><use xlink:href="#icon-instagram" width="40" height="40" y="380"/><view id="icon-instagram-view" viewBox="0 380 40 40"/><symbol fill="none" id="icon-letters" viewBox="0 0 24 24"><path d="M20.7574 16.568V17.576C20.4267 17.672 20.16 17.72 19.9574 17.72C19.0614 17.72 18.5654 17.2986 18.4694 16.456C18 16.9146 17.5414 17.2453 17.0934 17.448C16.6454 17.64 16.1547 17.736 15.6214 17.736C14.8107 17.736 14.1494 17.5226 13.6374 17.096C13.136 16.6586 12.8854 16.0506 12.8854 15.272C12.8854 14.696 13.008 14.2373 13.2534 13.896C13.4987 13.544 13.7974 13.2826 14.1494 13.112C14.512 12.9306 14.8534 12.8133 15.1734 12.76C15.3227 12.7386 15.552 12.7066 15.8614 12.664C16.1707 12.6106 16.56 12.552 17.0294 12.488C17.5627 12.4133 17.9307 12.312 18.1334 12.184C18.3467 12.056 18.4534 11.8586 18.4534 11.592V11.304C18.4534 10.472 17.8134 10.056 16.5334 10.056C15.9147 10.056 15.4454 10.1786 15.1254 10.424C14.816 10.6586 14.6347 11.032 14.5814 11.544H13.2374C13.2587 10.5733 13.5734 9.87997 14.1814 9.46397C14.8 9.03731 15.6054 8.82397 16.5974 8.82397C17.632 8.82397 18.416 9.02131 18.9494 9.41597C19.4827 9.79997 19.7494 10.3653 19.7494 11.112V15.944C19.7494 16.3813 19.9894 16.6 20.4694 16.6C20.5547 16.6 20.6507 16.5893 20.7574 16.568ZM18.4534 14.536V13.208C18.176 13.336 17.8294 13.4373 17.4134 13.512C17.008 13.5866 16.6294 13.6453 16.2774 13.688C15.6587 13.7626 15.1627 13.9066 14.7894 14.12C14.4267 14.3333 14.2454 14.7066 14.2454 15.24C14.2454 15.656 14.3947 15.9813 14.6934 16.216C15.0027 16.4506 15.424 16.568 15.9574 16.568C16.352 16.568 16.736 16.4826 17.1094 16.312C17.4934 16.1306 17.8134 15.8853 18.0694 15.576C18.3254 15.2666 18.4534 14.92 18.4534 14.536Z" fill="currentColor"/><path d="M10.6187 17.4479L9.62668 14.1039H5.77068L4.77868 17.4479H3.24268L6.77868 6.26392H8.65068L12.1707 17.4479H10.6187ZM6.13868 12.8559H9.25868L7.69068 7.60792L6.13868 12.8559Z" fill="currentColor"/></symbol><use xlink:href="#icon-letters" width="24" height="24" y="420"/><view id="icon-letters-view" viewBox="0 420 24 24"/><symbol fill="none" id="icon-lightmode" viewBox="0 0 25 24"><path d="M10.5 7.5H13.5V9H10.5V7.5Z" fill="currentColor"/><path d="M13.5 9H15V10.5H13.5V9Z" fill="currentColor"/><path d="M9 9H10.5V10.5H9V9Z" fill="currentColor"/><path d="M13.5 13.5H15V15H13.5V13.5Z" fill="currentColor"/><path d="M9 13.5H10.5V15H9V13.5Z" fill="currentColor"/><path d="M10.5 15H13.5V16.5H10.5V15Z" fill="currentColor"/><path d="M15 10.5H16.5V13.5H15V10.5Z" fill="currentColor"/><path d="M7.5 10.5H9V13.5H7.5V10.5Z" fill="currentColor"/><path d="M11.25 17.25H12.75V20.25H11.25V17.25Z" fill="currentColor"/><path d="M11.25 3.75H12.75V6.75H11.25V3.75Z" fill="currentColor"/><path d="M20.25 11.25V12.75H17.25V11.25H20.25Z" fill="currentColor"/><path d="M6.75 11.25V12.75H3.75L3.75 11.25H6.75Z" fill="currentColor"/><path d="M15.75 6.75H17.25V8.25H15.75V6.75Z" fill="currentColor"/><path d="M17.25 5.25H18.75V6.75H17.25V5.25Z" fill="currentColor"/><path d="M18.75 17.25H17.25V18.75H18.75V17.25Z" fill="currentColor"/><path d="M17.25 15.75H15.75V17.25H17.25V15.75Z" fill="currentColor"/><path d="M8.25 17.25H6.75V15.75H8.25V17.25Z" fill="currentColor"/><path d="M6.75 18.75H5.25V17.25H6.75V18.75Z" fill="currentColor"/><path d="M8.25 6.75H6.75V8.25H8.25V6.75Z" fill="currentColor"/><path d="M6.75 5.25H5.25V6.75H6.75V5.25Z" fill="currentColor"/></symbol><use xlink:href="#icon-lightmode" width="25" height="24" y="444"/><view id="icon-lightmode-view" viewBox="0 444 25 24"/><symbol fill="none" id="icon-link" viewBox="0 0 24 24"><path fill-rule="evenodd" clip-rule="evenodd" d="M14.7478 7.33069C15.0001 7.33063 15.25 7.38029 15.4832 7.47684C15.7164 7.57339 15.9282 7.71494 16.1067 7.89339C16.2851 8.07184 16.4267 8.2837 16.5232 8.51687C16.6198 8.75004 16.6694 8.99995 16.6694 9.25232C16.6693 9.50469 16.6195 9.75457 16.5229 9.9877C16.4262 10.2208 16.2846 10.4326 16.1061 10.611L16.1058 10.6112L14.3887 12.3283C14.2103 12.5067 13.9985 12.6482 13.7655 12.7448C13.5324 12.8413 13.2826 12.891 13.0303 12.891C12.778 12.891 12.5282 12.8413 12.2951 12.7448C12.062 12.6482 11.8502 12.5067 11.6718 12.3283C11.3789 12.0354 10.904 12.0354 10.6111 12.3283C10.3182 12.6212 10.3182 13.0961 10.6111 13.389C10.9288 13.7067 11.306 13.9587 11.721 14.1306C12.1361 14.3025 12.581 14.391 13.0303 14.391C13.4795 14.391 13.9244 14.3025 14.3395 14.1306C14.7546 13.9587 15.1317 13.7067 15.4494 13.389L17.1662 11.6721L17.1665 11.6719C17.4843 11.3543 17.7364 10.9772 17.9085 10.5622C18.0806 10.1471 18.1693 9.70208 18.1694 9.25267C18.1695 8.80326 18.0811 8.35823 17.9091 7.94301C17.7372 7.52779 17.4851 7.15051 17.1674 6.83273C16.8496 6.51495 16.4723 6.26289 16.0571 6.09096C15.6419 5.91902 15.1968 5.83058 14.7474 5.83069C14.298 5.83079 13.853 5.91944 13.4379 6.09157C13.0229 6.26365 12.6458 6.5158 12.3282 6.83361L12.328 6.83386L11.1263 8.03558C10.8334 8.32848 10.8334 8.80335 11.1263 9.09624C11.4192 9.38913 11.894 9.38913 12.1869 9.09624L13.3889 7.89427L13.3891 7.89402C13.5675 7.71549 13.7793 7.57384 14.0124 7.47719C14.2455 7.38053 14.4954 7.33075 14.7478 7.33069ZM10.2346 11.2553C10.4677 11.1587 10.7175 11.1091 10.9698 11.1091C11.2221 11.1091 11.4719 11.1587 11.705 11.2553C11.9381 11.3518 12.1499 11.4934 12.3283 11.6718C12.6212 11.9646 13.096 11.9646 13.3889 11.6718C13.6818 11.3789 13.6818 10.904 13.3889 10.6111C13.0713 10.2934 12.6941 10.0414 12.279 9.86948C11.864 9.69754 11.4191 9.60905 10.9698 9.60905C10.5205 9.60905 10.0757 9.69754 9.66059 9.86948C9.24552 10.0414 8.86837 10.2934 8.55069 10.6111L6.83385 12.328L6.83381 12.328L6.8336 12.3282C6.51579 12.6458 6.26365 13.0229 6.09157 13.4379C5.91944 13.853 5.83079 14.298 5.83069 14.7474C5.83058 15.1968 5.91902 15.6419 6.09096 16.0571C6.26289 16.4723 6.51494 16.8496 6.83272 17.1674C7.1505 17.4851 7.52777 17.7372 7.94299 17.9091C8.35821 18.0811 8.80324 18.1695 9.25265 18.1694C9.70205 18.1693 10.147 18.0806 10.5622 17.9085C10.9772 17.7364 11.3543 17.4843 11.6719 17.1665L11.6721 17.1662L12.8738 15.9645C13.1667 15.6716 13.1667 15.1967 12.8738 14.9038C12.5809 14.6109 12.106 14.611 11.8132 14.9038L10.6112 16.1058L10.6109 16.1061C10.4326 16.2846 10.2208 16.4262 9.98766 16.5229C9.75454 16.6196 9.50466 16.6693 9.2523 16.6694C8.99993 16.6695 8.75003 16.6198 8.51686 16.5232C8.28369 16.4267 8.07184 16.2851 7.89339 16.1067C7.71494 15.9282 7.57339 15.7164 7.47684 15.4832C7.38029 15.25 7.33063 15.0001 7.33069 14.7478C7.33075 14.4954 7.38053 14.2455 7.47719 14.0124C7.57384 13.7793 7.71549 13.5675 7.89402 13.3891L7.89427 13.3889L9.61135 11.6718C9.78975 11.4934 10.0015 11.3518 10.2346 11.2553Z" fill="currentColor"/></symbol><use xlink:href="#icon-link" width="24" height="24" y="468"/><view id="icon-link-view" viewBox="0 468 24 24"/><symbol fill="none" id="icon-order" viewBox="0 0 25 24"><path d="M5.94756 14.5714H7.66185V16.2857H5.94756V14.5714Z" fill="currentColor"/><path d="M7.66185 16.2857H9.37613V18H7.66185V16.2857Z" fill="currentColor"/><path d="M7.66185 6H9.37613V14.5714H7.66185V6Z" fill="currentColor"/><path d="M9.37613 14.5714H11.0904V16.2857H9.37613V14.5714Z" fill="currentColor"/><path d="M11.0904 12.8571H12.8047V14.5714H11.0904V12.8571Z" fill="currentColor"/><path d="M4.23328 12.8571H5.94756V14.5714H4.23328V12.8571Z" fill="currentColor"/><path d="M19.6618 9.42857L17.9476 9.42857L17.9476 7.71429H19.6618L19.6618 9.42857Z" fill="currentColor"/><path d="M17.9476 7.71429L16.2333 7.71429V6L17.9476 6V7.71429Z" fill="currentColor"/><path d="M17.9476 18H16.2333L16.2333 9.42857H17.9476V18Z" fill="currentColor"/><path d="M16.2333 9.42857L14.519 9.42857V7.71429L16.2333 7.71429V9.42857Z" fill="currentColor"/><path d="M14.519 11.1429H12.8047V9.42857H14.519V11.1429Z" fill="currentColor"/><path d="M21.3761 11.1429H19.6618V9.42857H21.3761V11.1429Z" fill="currentColor"/></symbol><use xlink:href="#icon-order" width="25" height="24" y="492"/><view id="icon-order-view" viewBox="0 492 25 24"/><symbol fill="none" id="icon-share" viewBox="0 0 25 24"><path d="M17.7949 5.59998C17.9997 5.59998 18.2044 5.67808 18.3606 5.83429C18.5168 5.9905 18.5949 6.19524 18.5949 6.39998V10.4C18.5949 10.8418 18.2367 11.2 17.7949 11.2C17.3531 11.2 16.9949 10.8418 16.9949 10.4V8.33135L13.1606 12.1657C12.8482 12.4781 12.3417 12.4781 12.0292 12.1657C11.7168 11.8532 11.7168 11.3467 12.0292 11.0343L15.8636 7.19998H13.7949C13.3531 7.19998 12.9949 6.8418 12.9949 6.39998C12.9949 5.95815 13.3531 5.59998 13.7949 5.59998H17.7949ZM18.5949 13.6V16.5744C18.5949 17.0203 18.5432 17.2881 18.3935 17.568C18.2492 17.8378 18.0327 18.0543 17.7629 18.1986C17.483 18.3483 17.2153 18.4 16.7694 18.4H7.62048C7.17458 18.4 6.90681 18.3483 6.6269 18.1986C6.35712 18.0543 6.14061 17.8378 5.99632 17.568C5.84663 17.2881 5.79492 17.0203 5.79492 16.5744V7.42553C5.79492 6.97963 5.84663 6.71186 5.99632 6.43196C6.14061 6.16217 6.35712 5.94566 6.6269 5.80138C6.90681 5.65168 7.17458 5.59998 7.62048 5.59998H10.5949C11.0367 5.59998 11.3949 5.95815 11.3949 6.39998C11.3949 6.8418 11.0367 7.19998 10.5949 7.19998H7.79492C7.57401 7.19998 7.39492 7.37906 7.39492 7.59998V16.4C7.39492 16.6209 7.57401 16.8 7.79492 16.8H16.5949C16.8158 16.8 16.9949 16.6209 16.9949 16.4V13.6C16.9949 13.1581 17.3531 12.8 17.7949 12.8C18.2367 12.8 18.5949 13.1581 18.5949 13.6Z" fill="currentColor"/></symbol><use xlink:href="#icon-share" width="25" height="24" y="516"/><view id="icon-share-view" viewBox="0 516 25 24"/><symbol fill="none" id="icon-sound" viewBox="0 0 25 24"><path d="M19.2332 9.95456V16.3831H18.6488V17.552H18.0644V18.1364H16.3112V17.552H15.7267V12.2922H16.3112V11.7078H18.0644V12.8766H18.6488V10.539H18.0644V9.37014H17.48V8.78573H16.8956V8.20131H16.3112V7.61689H15.7267V7.03248H14.5579V6.44806H11.0514V7.03248H9.88259V7.61689H9.29818V8.20131H8.71376V8.78573H8.12935V9.37014H7.54493V10.539H6.96051V12.8766H7.54493V11.7078H9.29818V12.2922H9.88259V17.552H9.29818V18.1364H7.54493V17.552H6.96051V16.3831H6.3761V9.95456H6.96051V8.78573H7.54493V8.20131H8.12935V7.61689H8.71376V7.03248H9.29818V6.44806H10.467V5.86365H15.1423V6.44806H16.3112V7.03248H16.8956V7.61689H17.48V8.20131H18.0644V8.78573H18.6488V9.95456H19.2332Z" fill="currentColor" stroke="currentColor"/></symbol><use xlink:href="#icon-sound" width="25" height="24" y="540"/><view id="icon-sound-view" viewBox="0 540 25 24"/><symbol fill="none" id="icon-tiktok" viewBox="0 0 40 40"><path d="M20.6439 8H24.8394C24.8394 8 24.6066 13.2722 30.6663 13.6422V17.7177C30.6663 17.7177 27.4324 17.9163 24.8394 15.9795L24.8847 24.3938C24.8847 25.8982 24.4287 27.3687 23.5743 28.6195C22.7199 29.8703 21.5055 30.8452 20.0847 31.4209C18.6639 31.9967 17.1005 32.1473 15.5921 31.8539C14.0838 31.5605 12.6982 30.8361 11.6107 29.7724C10.5232 28.7088 9.78261 27.3535 9.4825 25.8781C9.1824 24.4027 9.33629 22.8734 9.92472 21.4836C10.5131 20.0937 11.5097 18.9057 12.7883 18.0699C14.067 17.234 15.5703 16.7878 17.1082 16.7877H18.199V20.8678V20.9545C17.4881 20.7377 16.7253 20.746 16.0194 20.9783C15.3136 21.2106 14.7008 21.655 14.2685 22.2481C13.8361 22.8412 13.6063 23.5527 13.6118 24.2812C13.6173 25.0096 13.8579 25.7177 14.2991 26.3045C14.7404 26.8913 15.3598 27.3268 16.0691 27.5489C16.7783 27.771 17.5412 27.7683 18.2488 27.5412C18.9564 27.3141 19.5726 26.8742 20.0095 26.2843C20.4464 25.6944 20.6817 24.9846 20.6818 24.2562L20.6439 8Z" fill="currentColor"/></symbol><use xlink:href="#icon-tiktok" width="40" height="40" y="564"/><view id="icon-tiktok-view" viewBox="0 564 40 40"/><symbol fill="none" id="icon-twitter" viewBox="0 0 24 24"><path fill-rule="evenodd" clip-rule="evenodd" d="M6.80142 17.8484C6.55374 17.6283 6.53143 17.2491 6.75158 17.0014L10.4067 12.8893L6.69059 6.91699C6.57548 6.73198 6.56971 6.4991 6.67553 6.30862C6.78135 6.11814 6.98213 6.00001 7.20003 6.00001H10.08C10.2873 6.00001 10.4799 6.10701 10.5895 6.28302L12.9323 10.0482L16.3516 6.20139C16.5717 5.95372 16.951 5.93141 17.1986 6.15156C17.4463 6.3717 17.4686 6.75094 17.2485 6.99862L13.5934 11.1107L17.3095 17.083C17.4246 17.268 17.4303 17.5009 17.3245 17.6914C17.2187 17.8819 17.0179 18 16.8 18H13.92C13.7127 18 13.5201 17.893 13.4106 17.717L11.0678 13.9518L7.64848 17.7986C7.42833 18.0463 7.04909 18.0686 6.80142 17.8484ZM11.665 12.6401L14.2534 16.8H15.72L12.34 11.3678C12.3383 11.3652 12.3367 11.3626 12.3351 11.3599L9.74669 7.2H8.28003L11.66 12.6321C11.6617 12.6348 11.6634 12.6375 11.665 12.6401Z" fill="currentColor"/></symbol><use xlink:href="#icon-twitter" width="24" height="24" y="604"/><view id="icon-twitter-view" viewBox="0 604 24 24"/><symbol fill="none" id="icon-youtube" viewBox="0 0 40 40"><path d="M27.7953 10.625H12.2053C10.7412 10.6204 9.33515 11.1975 8.29652 12.2295C7.25789 13.2615 6.67174 14.6638 6.66699 16.1279V23.8721C6.67174 25.3363 7.25789 26.7386 8.29652 27.7705C9.33515 28.8025 10.7412 29.3797 12.2053 29.375H27.7953C29.2595 29.3797 30.6655 28.8025 31.7041 27.7705C32.7428 26.7386 33.3289 25.3363 33.3337 23.8721V16.1279C33.3289 14.6638 32.7428 13.2615 31.7041 12.2295C30.6655 11.1975 29.2595 10.6204 27.7953 10.625ZM24.0499 20.375L16.7578 23.8334C16.7134 23.8549 16.6642 23.8648 16.6148 23.8621C16.5655 23.8594 16.5177 23.8442 16.4758 23.818C16.434 23.7917 16.3995 23.7553 16.3755 23.7121C16.3516 23.6688 16.3391 23.6203 16.3391 23.5709V16.4425C16.339 16.3925 16.3519 16.3433 16.3763 16.2997C16.4008 16.2561 16.436 16.2195 16.4787 16.1934C16.5214 16.1674 16.57 16.1527 16.62 16.1509C16.67 16.149 16.7196 16.1601 16.7641 16.1829L24.0557 19.8546C24.104 19.8794 24.1444 19.9171 24.1724 19.9636C24.2004 20.01 24.2149 20.0634 24.2142 20.1176C24.2136 20.1718 24.1978 20.2248 24.1687 20.2706C24.1396 20.3163 24.0983 20.3531 24.0495 20.3767L24.0499 20.375Z" fill="currentColor"/></symbol><use xlink:href="#icon-youtube" width="40" height="40" y="628"/><view id="icon-youtube-view" viewBox="0 628 40 40"/></svg>